<svg xmlns="http://www.w3.org/2000/svg" width="124.908" height="114.222" viewBox="0 0 124.908 114.222"><defs><style>.a{fill:#a49dc6;}.b{fill:#ebd7e3;}</style></defs><g transform="translate(0 -21.643)"><g transform="translate(0 21.643)"><path class="a" d="M143.2,243.78a12.059,12.059,0,0,0-24.117,0h7.319a4.74,4.74,0,0,1,9.48,0Z" transform="translate(-89.69 -179.863)"/><path class="a" d="M301.268,231.721a12.072,12.072,0,0,0-12.058,12.058h7.319a4.74,4.74,0,0,1,9.48,0h7.319A12.072,12.072,0,0,0,301.268,231.721Z" transform="translate(-217.817 -179.862)"/><path class="a" d="M199.22,347.561a13.206,13.206,0,0,1-11.323-6.476l-6.3,3.719a20.455,20.455,0,0,0,35.252,0l-6.3-3.719A13.205,13.205,0,0,1,199.22,347.561Z" transform="translate(-136.766 -262.229)"/><path class="b" d="M120.146,72.6a16.175,16.175,0,0,0-8.435-4.47,51.861,51.861,0,0,0-49.257-35.8H60A10.7,10.7,0,0,1,49.315,21.643H42a17.907,17.907,0,0,0,3.525,10.685H43.2A10.7,10.7,0,0,1,32.517,21.643H25.2A18.032,18.032,0,0,0,37.546,38.732,51.776,51.776,0,0,0,13.2,68.128a16.26,16.26,0,0,0,0,31.938,51.786,51.786,0,0,0,98.514,0A16.261,16.261,0,0,0,120.146,72.6ZM108.828,93.031l-2.746.052-.717,2.651a44.464,44.464,0,0,1-85.821,0l-.717-2.651-2.746-.052A8.978,8.978,0,0,1,7.319,84.1a8.93,8.93,0,0,1,8.761-8.934l2.747-.052.717-2.652A44.515,44.515,0,0,1,62.454,39.647a12,12,0,1,1-12,12H43.139a19.315,19.315,0,1,0,36.676-8.455,44.473,44.473,0,0,1,25.549,29.271l.717,2.652,2.747.052a8.936,8.936,0,0,1,0,17.868Z" transform="translate(0 -21.643)"/></g></g></svg>