<svg xmlns="http://www.w3.org/2000/svg" width="111.731" height="111.444" viewBox="0 0 111.731 111.444"><defs><style>.a{fill:#e6cbdb;}.b{fill:#a49dc6;}</style></defs><g transform="translate(-0.424)"><g transform="translate(0.424)"><path class="a" d="M103.781,51.355a3.778,3.778,0,0,0-3.708-3.066H96.426l-.268-1.607A3.8,3.8,0,0,0,93,43.552c-.359-.057-.722-.094-1.079-.144a11.522,11.522,0,0,0-1.436-8.422,7.729,7.729,0,0,0-5.6-10.34,16.072,16.072,0,0,0-15.7-13.12c-.189,0-.357.025-.536.03a7.684,7.684,0,0,0-11.754-1.462A12.965,12.965,0,0,0,49.841,8a13.114,13.114,0,0,0-10.309,5.077,9.408,9.408,0,0,0-12.025,8.455,7.775,7.775,0,0,0-4.762,7.163,7.682,7.682,0,0,0,.189,1.611,15.2,15.2,0,0,0-1.811,13.033c-.506.07-1.024.132-1.511.2a3.8,3.8,0,0,0-3.181,3.128l-.268,1.613H12.505A3.778,3.778,0,0,0,8.8,51.342L.528,93.808A5.667,5.667,0,0,0,6.1,100.555H45.493c1.564,2.58,6.316,3.778,10.8,3.778,4.433,0,9.14-1.169,10.75-3.778h39.438a5.667,5.667,0,0,0,5.574-6.745ZM28.457,32.113a3.989,3.989,0,0,1,2.04-7.408,3.918,3.918,0,0,1,3.171,1.6A1.889,1.889,0,1,0,36.7,24.055a7.631,7.631,0,0,0-5.357-3.022,5.742,5.742,0,0,1,5.6-4.547,5.887,5.887,0,0,1,.688.076,12.407,12.407,0,0,0-.4,1.182,1.889,1.889,0,0,0,3.657.944,9.186,9.186,0,0,1,.98-2.365,9.327,9.327,0,0,1,7.967-4.547,9.174,9.174,0,0,1,5,1.511,7.678,7.678,0,0,0-.444,2.476,1.889,1.889,0,1,0,3.778,0,3.973,3.973,0,1,1,7.946,0,1.889,1.889,0,0,0,3.778,0c0-.145-.036-.283-.043-.429a12.261,12.261,0,0,1,11.186,9.456A7.665,7.665,0,0,0,78.6,26.01a1.889,1.889,0,0,0,2.267,3.022,3.982,3.982,0,0,1,5.84,5.151,4.029,4.029,0,0,1-1.789,1.655,1.889,1.889,0,0,0,.8,3.589,1.864,1.864,0,0,0,.8-.179,7.758,7.758,0,0,0,1.411-.882,8.067,8.067,0,0,1-1.6,8.056l-.045.047a8.158,8.158,0,0,1-9.633,1.768,7.5,7.5,0,0,1-.914-.57,6.434,6.434,0,0,0,.5-6.649,1.89,1.89,0,1,0-3.375,1.7,2.813,2.813,0,0,1-.91,3.561,2.85,2.85,0,0,1-4.1-1.046,1.889,1.889,0,0,0-3.379,1.691,6.549,6.549,0,0,0,5.886,3.642,6.479,6.479,0,0,0,2.371-.467,11.18,11.18,0,0,0,2.214,1.511,11.635,11.635,0,0,0,8.725.807,12.04,12.04,0,0,1-7.778,4.769,1.889,1.889,0,0,0,.3,3.753,2.01,2.01,0,0,0,.3-.023,15.523,15.523,0,0,0,3.351-.978,16.89,16.89,0,0,1,1.409,3.243,1.947,1.947,0,0,1,.1.61,2.038,2.038,0,0,1-1.239,1.874,2.138,2.138,0,0,1-2.439-.655,12.057,12.057,0,0,0-5.529-3.674c-4.082-1.368-5.657-2.59-6.326-3.919a18.133,18.133,0,0,0,2.9-.6A1.889,1.889,0,1,0,67.6,53.2a14.314,14.314,0,0,1-3.26.6,14.019,14.019,0,0,1-6.26-.944,1.889,1.889,0,0,0-2.117.527,8.088,8.088,0,0,1-13.045-9.458,1.895,1.895,0,0,0-3.251-1.947,11.8,11.8,0,0,0-1.08,2.431A2.833,2.833,0,0,1,35.9,41.622v-.047a1.868,1.868,0,0,0-1.889-1.864,1.908,1.908,0,0,0-1.889,1.912,6.573,6.573,0,0,0,5.865,6.519,11.859,11.859,0,0,0,.172,1.889A11.543,11.543,0,0,1,25.1,34.221a7.614,7.614,0,0,0,1.405,1.12,1.889,1.889,0,0,0,1.949-3.236ZM20.146,47.287c.871-.128,1.77-.242,2.663-.359a15.251,15.251,0,0,0,16.565,6.721A11.832,11.832,0,0,0,57.908,56.79a18.132,18.132,0,0,0,3.942.714c.912,3.46,3.549,5.557,9.089,7.414a8.371,8.371,0,0,1,3.846,2.533,6.016,6.016,0,0,0,4.564,2.144,5.737,5.737,0,0,0,2.242-.457,5.816,5.816,0,0,0,3.53-5.347A5.6,5.6,0,0,0,84.834,62a20.648,20.648,0,0,0-1.67-3.844,15.923,15.923,0,0,0,6.277-9.6,11.832,11.832,0,0,0,1.088-1.522c.633.081,1.266.153,1.9.259L99.25,88.311a64.838,64.838,0,0,0-41.072,0V64.666a1.889,1.889,0,1,0-3.778,0V88.319A64.849,64.849,0,0,0,13.329,88.3ZM4.631,96.082a1.874,1.874,0,0,1-.4-1.549l8.271-42.466h3.022L9.6,87.69a3.791,3.791,0,0,0,4.875,4.22,63.192,63.192,0,0,1,31.2-1.98l-.563,6.847H6.1a1.9,1.9,0,0,1-1.471-.7Zm51.659,4.473c-4.55,0-7.161-1.345-7.544-1.944l.65-7.839a40.365,40.365,0,0,1,6.078,2.038,1.906,1.906,0,0,0,.816.189,1.877,1.877,0,0,0,.818-.189,40.234,40.234,0,0,1,6.077-2.051l.65,7.85c-.383.6-2.994,1.946-7.544,1.946Zm51.659-4.473a1.9,1.9,0,0,1-1.471.7h-39l-.567-6.86a63.211,63.211,0,0,1,31.212,2,3.789,3.789,0,0,0,4.858-4.229L97.055,52.069h3.022l8.273,42.462A1.874,1.874,0,0,1,107.948,96.082Z" transform="translate(-0.424 7.111)"/><path class="b" d="M26.979,25.083a1.889,1.889,0,0,0-.134,2.667A11.39,11.39,0,0,0,32.9,31.241a5.627,5.627,0,0,1-4.6,2.371,1.889,1.889,0,1,0,0,3.778,9.367,9.367,0,0,0,8.8-6.058,11.4,11.4,0,0,0,9.325-9.067,1.889,1.889,0,1,0-3.71-.71,7.529,7.529,0,0,1-3.128,4.8,7.71,7.71,0,0,1-9.943-1.133,1.889,1.889,0,0,0-2.667-.134Z" transform="translate(22.627 17.766)"/><path class="b" d="M24.089,26.578a1.889,1.889,0,0,0,1.889-1.889,4.911,4.911,0,0,1,4.911-4.911,1.889,1.889,0,0,0,0-3.778A8.7,8.7,0,0,0,22.2,24.689a1.889,1.889,0,0,0,1.889,1.889Z" transform="translate(18.932 14.222)"/><path class="b" d="M32.778,3.778V1.889a1.889,1.889,0,1,0-3.778,0V3.778a1.889,1.889,0,0,0,3.778,0Z" transform="translate(24.977)"/><path class="b" d="M47.57,7.447,45.681,9.336a1.889,1.889,0,1,0,2.671,2.671l1.889-1.889A1.889,1.889,0,1,0,47.57,7.447Z" transform="translate(39.292 6.107)"/><path class="b" d="M15.672,12.561a1.889,1.889,0,0,0,1.335-3.224L15.118,7.447a1.889,1.889,0,1,0-2.671,2.671l1.889,1.889a1.889,1.889,0,0,0,1.335.553Z" transform="translate(9.751 6.107)"/><path class="b" d="M23.5,9.934a1.915,1.915,0,0,0,.723-.144,1.889,1.889,0,0,0,1.022-2.469l-2.17-5.236a1.889,1.889,0,1,0-3.489,1.447l2.168,5.236A1.889,1.889,0,0,0,23.5,9.934Z" transform="translate(16.465 0.785)"/><path class="b" d="M42.2,1.047a1.889,1.889,0,0,0-2.467,1.022L37.563,7.3a1.889,1.889,0,0,0,1.022,2.471,1.915,1.915,0,0,0,.723.144,1.889,1.889,0,0,0,1.745-1.165l2.168-5.236A1.889,1.889,0,0,0,42.2,1.047Z" transform="translate(32.46 0.802)"/><path class="b" d="M51.217,20.381a1.889,1.889,0,0,0,.723-.145l5.234-2.168a1.889,1.889,0,1,0-1.445-3.491l-5.236,2.168a1.889,1.889,0,0,0,.723,3.636Z" transform="translate(43.04 12.829)"/><path class="b" d="M12.3,20.236a1.889,1.889,0,0,0,1.447-3.491L8.515,14.577A1.889,1.889,0,1,0,7.07,18.067Z" transform="translate(4.446 12.829)"/></g></g></svg>