<svg xmlns="http://www.w3.org/2000/svg" width="99.633" height="137.484" viewBox="0 0 99.633 137.484"><defs><style>.a{fill:#d4e1f4;}.b{fill:#a49dc6;}.c{fill:#e6cbdb;}</style></defs><path class="a" d="M136.037,16.209a50.988,50.988,0,0,0-7.186-.091C103.8,17.591,83.821,38,83.734,62.118a45.261,45.261,0,0,0,18.5,36.584,23.978,23.978,0,0,1,9.676,17.363h-3.236v25.15h4.772l1.068,3.06a8.642,8.642,0,0,0,8.193,5.882H131.1a8.642,8.642,0,0,1-8.193-5.882l-1.09-3.121v-.218h-4.751V116.345h3.258a23.973,23.973,0,0,0-9.7-17.644,45.224,45.224,0,0,1-18.5-36.564c.085-23.728,19.433-43.886,43.92-45.927Z" transform="translate(-82.057 -14.35)"/><g transform="translate(1.752 1.674)"><path class="b" d="M168.591,262.2h-2.9a7.656,7.656,0,0,0-7.256-5.739,7.429,7.429,0,1,0,7.234,9.092h2.92a2.916,2.916,0,0,1,2.809,2.81v21.222h3.353V268.366A6.27,6.27,0,0,0,168.591,262.2Zm-10.154,5.853a4.085,4.085,0,1,1,4.085-4.085A4.085,4.085,0,0,1,158.438,268.055Z" transform="translate(-132.278 -189.268)"/><path class="b" d="M263.071,35h2.7a2.673,2.673,0,0,1,2.683,2.658V49.008a7.434,7.434,0,1,0,3.353.225V37.661a6.03,6.03,0,0,0-6.036-6.012h-2.7a2.725,2.725,0,0,1-2.718-2.685V16H257V28.963A6.083,6.083,0,0,0,263.071,35ZM273.723,56.35a4.085,4.085,0,1,1-4.085-4.085A4.085,4.085,0,0,1,273.723,56.35Z" transform="translate(-208.656 -16)"/><path class="b" d="M351.183,145.031v6.735a7.423,7.423,0,1,0,3.353,0v-6.735a2.646,2.646,0,0,1,2.632-2.678h10.223V139H357.168a6,6,0,0,0-5.985,6.031Zm5.721,13.977a4.085,4.085,0,1,1-4.085-4.084A4.085,4.085,0,0,1,356.9,159.008Z" transform="translate(-272.379 -104.628)"/><path class="b" d="M263.235,220.3a7.421,7.421,0,1,0,0-14.841,7.543,7.543,0,0,0-6.979,4.9h-.16a6.035,6.035,0,0,0-6.1,5.956v36.24h3.353v-36.24a2.706,2.706,0,0,1,2.452-2.659A7.483,7.483,0,0,0,263.235,220.3Zm0-11.522a4.085,4.085,0,1,1-4.084,4.085A4.085,4.085,0,0,1,263.235,208.779Z" transform="translate(-203.612 -152.517)"/><path class="b" d="M281.232,285.206a7.439,7.439,0,1,0,0,14.878,7.362,7.362,0,0,0,7.235-5.714h9.975v-3.353h-9.956A7.419,7.419,0,0,0,281.232,285.206Zm0,11.513a4.085,4.085,0,1,1,4.084-4.084,4.085,4.085,0,0,1-4.084,4.084Z" transform="translate(-220.756 -209.978)"/><path class="b" d="M112.124,201.636a7.445,7.445,0,1,0-7.311-8.856H98.339a2.521,2.521,0,0,1-2.6-2.557V188.98A6.053,6.053,0,0,0,89.642,183H84v3.353h5.642a2.7,2.7,0,0,1,2.742,2.627v1.244a5.876,5.876,0,0,0,5.956,5.909h6.621a7.257,7.257,0,0,0,7.165,5.5Zm0-11.465a4.084,4.084,0,1,1-4.085,4.084A4.084,4.084,0,0,1,112.124,190.171Z" transform="translate(-84 -136.332)"/><path class="b" d="M154.268,66.62a7.648,7.648,0,0,0,7.238-5.69h3.906a6.12,6.12,0,0,0,6.058-6.095V42.213a6.017,6.017,0,0,0-6.008-6.025,2.66,2.66,0,0,1-2.655-2.672V26h-3.353v7.515a6.018,6.018,0,0,0,6.008,6.025,2.66,2.66,0,0,1,2.655,2.672V54.836a2.764,2.764,0,0,1-2.705,2.741h-3.89a7.433,7.433,0,1,0-7.253,9.043Zm0-11.557a4.085,4.085,0,1,1-4.084,4.085,4.085,4.085,0,0,1,4.084-4.085Z" transform="translate(-129.273 -23.206)"/></g><path class="c" d="M162.412,23.707A51.132,51.132,0,0,0,124.427,10.1,50.264,50.264,0,0,0,91.409,25.11a46.53,46.53,0,0,0,5.506,70.6,22.1,22.1,0,0,1,8.835,14.622h-1.429a1.578,1.578,0,0,0-1.643,1.593V136.6a1.647,1.647,0,0,0,1.643,1.673h3.619l.722,2.188a10.228,10.228,0,0,0,9.727,7.034h18.319a10.228,10.228,0,0,0,9.727-7.034l.722-2.188h3.619a1.646,1.646,0,0,0,1.643-1.674V111.921a1.578,1.578,0,0,0-1.643-1.593h-1.421a22.008,22.008,0,0,1,8.726-14.513,46.757,46.757,0,0,0,4.331-72.109Zm-13.346,89.975v5.309H106.031v-5.309Zm-5.815,25.728a6.879,6.879,0,0,1-6.543,4.732H118.389a6.879,6.879,0,0,1-6.543-4.732l-.375-1.137h32.154Zm-37.22-4.49V122.344h43.035v12.575Zm50.035-41.784a25.851,25.851,0,0,0-10.1,17.193H109.133A25.334,25.334,0,0,0,98.913,93.014,43.164,43.164,0,0,1,93.8,27.469a46.922,46.922,0,0,1,30.82-14.016,47.753,47.753,0,0,1,35.488,12.7,43.418,43.418,0,0,1,13.9,31.81A43.864,43.864,0,0,1,156.065,93.135Z" transform="translate(-77.732 -10.01)"/><path class="c" d="M190.173,425h-1.257a1.677,1.677,0,0,0,0,3.353h1.257a1.677,1.677,0,0,0,0-3.353Z" transform="translate(-156.638 -309.033)"/><path class="c" d="M231.86,425H215.445a1.677,1.677,0,1,0,0,3.353H231.86a1.677,1.677,0,1,0,0-3.353Z" transform="translate(-175.753 -309.033)"/></svg>