<svg xmlns="http://www.w3.org/2000/svg" width="220.579" height="208.167" viewBox="0 0 220.579 208.167"><defs><style>.a{opacity:0.75;}.b{fill:#e8cbdc;}</style></defs><g class="a" transform="translate(-12.305 64.959) rotate(-30)"><path class="b" d="M254.58,453.185a7.083,7.083,0,0,0-1.718,4.489,7.736,7.736,0,0,0,7.736,7.736c1.5,0,3.525-1.08,4.584-1.643,1.854-3.183,2.284-7.8,2.284-11.919C267.465,446.92,256.452,452.172,254.58,453.185Z" transform="translate(-155.76 -276.895)"/><path class="b" d="M249.955,462.389a7.7,7.7,0,0,1,.956-3.726c-.075.041-.137.075-.182.1a7.737,7.737,0,0,0,3.912,14.411,7.458,7.458,0,0,0,6.872-3.931,8.008,8.008,0,0,1-3.821.881A7.736,7.736,0,0,1,249.955,462.389Z" transform="translate(-152.09 -282.373)"/><path class="b" d="M308.374,453.314c-.77-.452-6.393-3.255-10.008-3.5-1.167,7.494.889,15.622,8.384,15.622,1.352,0,3.385-1.11,4.491-1.72a7.738,7.738,0,0,0-2.867-10.4Z" transform="translate(-183.602 -276.923)"/><path class="b" d="M293.949,449.788c-1.77-.12-3.059.374-3.059,2.059,0,7.177,1.3,15.85,9.155,15.85a7.732,7.732,0,0,0,6.778-4.007,7.7,7.7,0,0,1-3.728.957c-7.495,0-9.023-7.9-9.147-14.86Z" transform="translate(-179.184 -276.895)"/><path class="b" d="M315.073,405.6c-2.775-1.788-7.538.45-11.776,4.184-4.16,4.678-6.45,8.8-6.45,12.182,0,3.7,11.791,7.357,17.432,3.044,3.412-5.534,5.224-16.555.794-19.41Z" transform="translate(-182.854 -249.299)"/><path class="b" d="M293.94,428.917c0-3.383,2.421-7.717,5.688-11.419-4.69,4.132-8.738,10.1-8.738,14.47,0,4.025,13.492,6.9,17.93,2.98a9.892,9.892,0,0,0,1.79-2.223C305.313,435.334,293.94,432.613,293.94,428.917Z" transform="translate(-179.184 -257.016)"/><path class="b" d="M237.938,405.123c-3.683,6.106.085,16.579,3.763,19.824,3.1,2.736,11.386,1.4,15.636-.574,0-.039.006-.078.006-.118C257.343,416.413,244.336,403.462,237.938,405.123Z" transform="translate(-145.638 -249.303)"/><path class="b" d="M238.9,424.418c-3.678-3.246-6.578-13.689-4.526-19.062a3.791,3.791,0,0,0-1.109.479c-5.158,3.324-1.853,17.717,2.585,21.633,4.394,3.877,17.663,1.1,17.923-2.862-4.25,1.97-11.772,2.548-14.874-.188Z" transform="translate(-142.071 -249.536)"/><path class="b" d="M96.338,121.658c-2.588,2.269-4.327,7.9-4.327,11.3a19.478,19.478,0,0,0,19.478,19.478c3.78,0,8.876-2.72,11.542-4.138,4.667-8.014,5.75-19.635,5.75-30.013C128.782,105.882,101.051,119.109,96.338,121.658Z" transform="translate(-56.678 -69.485)"/><path class="b" d="M84.693,144.834a19.386,19.386,0,0,1,2.407-9.383c-.19.1-.346.19-.458.256a19.48,19.48,0,0,0,9.849,36.286c8.417,0,13.844-3.959,17.3-9.9a20.166,20.166,0,0,1-9.622,2.218,19.478,19.478,0,0,1-19.478-19.478Z" transform="translate(-47.439 -83.278)"/><path class="b" d="M231.791,121.984c-1.94-1.139-16.1-8.2-25.2-8.811-2.94,18.871,2.24,39.337,21.111,39.337,3.4,0,8.523-2.8,11.308-4.33a19.486,19.486,0,0,0-7.219-26.2Z" transform="translate(-126.784 -69.555)"/><path class="b" d="M195.468,113.1c-4.458-.3-7.7.943-7.7,5.185,0,18.071,3.28,39.912,23.053,39.912a19.471,19.471,0,0,0,17.068-10.09,19.385,19.385,0,0,1-9.388,2.41C199.628,150.521,195.78,130.628,195.468,113.1Z" transform="translate(-115.661 -69.487)"/><path class="b" d="M54.433.637c-9.274,15.374.214,41.745,9.476,49.917,7.809,6.89,28.669,3.515,39.371-1.445.007-.1.015-.2.015-.3,0-19.746-32.752-52.357-48.862-48.176Z" transform="translate(-31.191 -0.009)"/><path class="b" d="M56.849,49.221c-9.262-8.173-16.564-34.47-11.4-48A9.542,9.542,0,0,0,42.661,2.43C29.672,10.8,37.994,47.042,49.169,56.9,60.233,66.664,93.645,59.674,94.3,49.7c-10.7,4.96-29.642,6.415-37.451-.475Z" transform="translate(-22.211 -0.596)"/><path class="b" d="M248.66,1.834c-6.987-4.5-18.98,1.133-29.653,10.535-10.476,11.78-16.242,22.156-16.242,30.674,0,9.305,29.69,18.524,43.894,7.665,8.591-13.935,13.156-41.685,2-48.874Z" transform="translate(-124.901 0)"/><path class="b" d="M195.445,60.553c0-8.518,6.1-19.432,14.322-28.754-11.81,10.4-22,25.42-22,36.434,0,10.135,33.972,17.362,45.147,7.5a24.905,24.905,0,0,0,4.508-5.6C224.083,76.71,195.445,69.858,195.445,60.553Z" transform="translate(-115.661 -19.43)"/><path class="b" d="M318.109,298.162a12.656,12.656,0,0,0-2.668.544c-.251.406-2.407,2.747-2.615,3.189a12.61,12.61,0,0,0,6.037,16.78c3.773,1.776,9.08-.209,12.1-1.468a54.356,54.356,0,0,0,7.412-12.094c3.558-7.558-18.11-7.147-20.271-6.95Z" transform="translate(-191.955 -183.458)"/><path class="b" d="M312.775,317.756a12.57,12.57,0,0,1-5.342-18.049,12.6,12.6,0,0,0-1.57,23.425c6.966,3.28,12.615.285,17.1-4.925A12.067,12.067,0,0,1,312.775,317.756Z" transform="translate(-183.947 -184.458)"/><path class="b" d="M401.174,325.461c-.866-1.266-7.858-10.112-13.141-12.52-3.976,9.8-7.79,22.823,2.358,27.6,2.991,1.408,8.173-.383,11.095-1.308a12.73,12.73,0,0,0,.693-1.273A12.6,12.6,0,0,0,401.174,325.461Z" transform="translate(-236.478 -192.61)"/><path class="b" d="M382.724,337.652c-10.148-4.778-8.254-15.884-4.278-25.681-2.19-1-4.087-.892-5.13,1.324-4.983,10.585-9.085,24.281,2.5,29.734a12.61,12.61,0,0,0,16.087-4.764,12.562,12.562,0,0,1-9.175-.612Z" transform="translate(-226.891 -191.64)"/><path class="b" d="M324.782,207.571c-.038,0-.076.013-.115.02-5.033,7.8-8.872,23.812-6.1,30.223,2.763,6.4,16.867,8.93,24.477,8.676C346.209,232.869,335.232,206.18,324.782,207.571Z" transform="translate(-195.66 -127.671)"/><path class="b" d="M311.927,236.009c-2.77-6.411-.85-20.507,4.183-28.3-9.84,1.487-14.906,24.858-11.095,33.679,3.826,8.856,25.717,13.992,28.512,8.056a14.226,14.226,0,0,0,.958-2.836C326.875,246.86,314.69,242.405,311.927,236.009Z" transform="translate(-187.103 -127.787)"/><path class="b" d="M432.046,275.859c-4.3-6.885-21.635-3.4-33.254,3.639-1.314,1.373-4.278,4.72-4.961,6.17-2.795,5.936,15.11,19.537,24.374,16.844.847-.247,3.662-2.55,4.583-3.048C429.82,292.427,435.683,281.682,432.046,275.859Z" transform="translate(-242.415 -167.47)"/><path class="b" d="M387.743,295.571a16.4,16.4,0,0,1,3.041-4.25c-4.6,2.791-8.312,6.14-9.953,9.626-2.795,5.936,15.11,19.537,24.374,16.844,2.905-.845,6.362-3.288,9.575-6.5a13.786,13.786,0,0,1-2.663,1.127C402.853,315.109,384.948,301.507,387.743,295.571Z" transform="translate(-234.406 -179.292)"/><path class="b" d="M153.957,374.4a12.6,12.6,0,0,0-10.275-7.189c-1.3-.118-9.6-.313-15.283,1.18a.037.037,0,0,1,0,.01c2.323,13.263,11.007,24.392,22.588,18.939.421-.2,2.744-2.338,3.132-2.575a12.576,12.576,0,0,0-.167-10.365Z" transform="translate(-79.092 -225.989)"/><path class="b" d="M119.771,370.416l0-.01c-3.792,1-6.413,2.744-4.988,5.77,4.983,10.585,12.927,22.472,24.508,17.019a12.558,12.558,0,0,0,6.2-6.415,12.71,12.71,0,0,1-1.212.655C132.7,392.888,124.754,381,119.771,370.416Z" transform="translate(-70.46 -228.008)"/><path class="b" d="M87.657,382.337c-2.207-4.686-8.229.054-12.78,4.76-.234.3-.387.55-.5.676C70,392.7,69.477,398,71.453,402.194a12.61,12.61,0,0,0,16.78,6.037c.529-.249,2.945-2.436,3.41-2.718C94.283,398.925,91.193,389.848,87.657,382.337Z" transform="translate(-43.338 -234.169)"/><path class="b" d="M68.274,411a12.6,12.6,0,0,1,1-12.5c.1-.139.265-.371.5-.676a65.176,65.176,0,0,0-5.491,6.436A12.611,12.611,0,0,0,80.062,422.8a12.189,12.189,0,0,0,6.482-6.559,15.949,15.949,0,0,1-1.49.8A12.61,12.61,0,0,1,68.274,411Z" transform="translate(-38.239 -244.899)"/><path class="b" d="M51.824,358.17c-4.956-10.525-28.741-19.813-39.221-16.2C9.74,352.4,22.182,368.75,30.522,371.174c5.282,1.536,15.293-4.147,20.754-8.765C52.117,360.82,52.377,359.345,51.824,358.17Z" transform="translate(-7.505 -210.002)"/><path class="b" d="M24.937,370.528C16.6,368.1,3.717,352.517,5.1,343.242a7.318,7.318,0,0,0-3.986,2.936c-5.3,8.484,9.57,27.416,18.833,30.109,7.431,2.16,20.419-6.163,23.826-12.605C38.31,368.3,30.22,372.063,24.937,370.528Z" transform="translate(0 -211.275)"/><path class="b" d="M134.934,276.615a8.1,8.1,0,0,0-6.024,2.057c-9.426,11.255-12.01,27.778-8.206,35.858,2.177,4.623,17.855.61,25.642-4.725C149.776,300.592,144.665,277.911,134.934,276.615Z" transform="translate(-73.312 -170.202)"/><path class="b" d="M117.972,315.993c-3.8-8.08.023-24.247,6.286-33.938-8.908,7-16.019,29.629-11.278,39.7,2.795,5.936,24.686.8,28.512-8.056.071-.164.138-.335.2-.509C133.906,318.523,120.148,320.616,117.972,315.993Z" transform="translate(-68.661 -173.585)"/><g transform="translate(39.399 38.134)"><path class="b" d="M183.105,129.784a2.88,2.88,0,0,1-2.88-2.88v-25.13a2.88,2.88,0,1,1,5.76,0V126.9A2.88,2.88,0,0,1,183.105,129.784Z" transform="translate(-150.415 -98.894)"/><path class="b" d="M286.27,459.267a2.88,2.88,0,0,1-2.88-2.88v-9.77a2.88,2.88,0,1,1,5.76,0v9.77A2.88,2.88,0,0,1,286.27,459.267Z" transform="translate(-213.964 -311.313)"/><path class="b" d="M104.252,366.928a2.88,2.88,0,0,1,3.832,1.379l7.457,15.838a2.88,2.88,0,0,1-5.211,2.453l-7.457-15.838A2.88,2.88,0,0,1,104.252,366.928Z" transform="translate(-102.598 -263.83)"/><path class="b" d="M369.445,300.495a2.88,2.88,0,0,0-3.832,1.379l-7.457,15.838a2.88,2.88,0,0,0,5.211,2.453l7.457-15.838A2.88,2.88,0,0,0,369.445,300.495Z" transform="translate(-259.849 -222.908)"/></g></g></svg>