<svg xmlns="http://www.w3.org/2000/svg" width="87.148" height="87.148" viewBox="0 0 87.148 87.148"><defs><style>.a{fill:#a49dc6;}</style></defs><g transform="translate(-1 -1)"><path class="a" d="M44.574,1A43.574,43.574,0,1,0,88.148,44.574,43.574,43.574,0,0,0,44.574,1Zm0,79.225A35.651,35.651,0,1,1,80.225,44.574,35.651,35.651,0,0,1,44.574,80.225Z"/><path class="a" d="M18.923,31.089V8.961a3.961,3.961,0,1,0-7.923,0V32.729a3.961,3.961,0,0,0,1.16,2.8L24.044,47.413a3.961,3.961,0,1,0,5.6-5.6Z" transform="translate(29.613 11.845)"/></g></svg>