<svg xmlns="http://www.w3.org/2000/svg" width="116.48" height="102.09" viewBox="0 0 116.48 102.09"><defs><style>.a{fill:#a49dc6;}.b{fill:#e6cbdb;}</style></defs><g transform="translate(0 0)"><path class="a" d="M185.871,159.668a11.882,11.882,0,1,0,11.882,11.882A11.882,11.882,0,0,0,185.871,159.668Zm0,18.105a6.224,6.224,0,0,1,0-12.447h0a6.224,6.224,0,1,1,0,12.447Z" transform="translate(-126.883 -123.635)"/><path class="b" d="M106.372,35.451l-77.23-8.769a10.607,10.607,0,0,0-8.345,2.4,10.75,10.75,0,0,0-4.1,7.355L15.28,48.04H10.9C4.672,48.04,0,53.556,0,59.78v57.852a10.75,10.75,0,0,0,10.462,11.03q.214.006.429,0H88.55c6.224,0,11.882-4.809,11.882-11.033v-2.263a14.144,14.144,0,0,0,5.375-2.263,11.741,11.741,0,0,0,4.1-7.638l6.507-57.427A11.457,11.457,0,0,0,106.372,35.451Zm-11.6,82.181c0,3.112-3.112,5.375-6.224,5.375H10.9a5.092,5.092,0,0,1-5.239-4.94q-.006-.217.006-.435V107.165L27.586,91.04a6.79,6.79,0,0,1,8.77.424l15.418,13.579a13.3,13.3,0,0,0,8.346,3.112,12.872,12.872,0,0,0,6.79-1.839L94.773,90.191v27.441Zm0-34.089L63.938,101.507a7.214,7.214,0,0,1-8.346-.707L40.033,87.079a12.589,12.589,0,0,0-15.7-.566L5.662,100.092V59.78c0-3.112,2.122-6.082,5.234-6.082H88.55a6.507,6.507,0,0,1,6.224,6.082V83.543Zm15.989-36.267c0,.019,0,.038-.006.056l-6.648,57.427a4.809,4.809,0,0,1-1.839,3.819c-.566.566-1.839.849-1.839,1.132V59.78A12.164,12.164,0,0,0,88.549,48.04H20.938l1.273-11.033a6.507,6.507,0,0,1,2.122-3.678A6.506,6.506,0,0,1,28.576,32.2l77.089,8.911A5.658,5.658,0,0,1,110.762,47.276Z" transform="translate(0 -26.576)"/></g></svg>