<svg xmlns="http://www.w3.org/2000/svg" width="61.276" height="87.148" viewBox="0 0 61.276 87.148"><defs><style>.a{fill:#a49dc6;}</style></defs><g transform="translate(-76)"><g transform="translate(76)"><g transform="translate(0)"><path class="a" d="M106.638,0A30.644,30.644,0,0,0,80.573,46.749l24.321,39.192a2.553,2.553,0,0,0,2.169,1.207h.02a2.553,2.553,0,0,0,2.17-1.241l23.7-39.572A30.645,30.645,0,0,0,106.638,0Zm21.934,43.713L107.025,79.69,84.913,44.058a25.549,25.549,0,1,1,43.659-.345Z" transform="translate(-76)"/></g></g><g transform="translate(91.319 15.319)"><path class="a" d="M181.319,90a15.319,15.319,0,1,0,15.319,15.319A15.336,15.336,0,0,0,181.319,90Zm0,25.566a10.247,10.247,0,1,1,10.23-10.247A10.254,10.254,0,0,1,181.319,115.566Z" transform="translate(-166 -90)"/></g></g></svg>