<svg xmlns="http://www.w3.org/2000/svg" width="87.148" height="87.148" viewBox="0 0 87.148 87.148"><defs><style>.a{fill:#a49dc6;}</style></defs><g transform="translate(-1 -1)"><path class="a" d="M85.345,63.729c-.154-.128-17.552-12.578-22.272-11.762-2.269.4-3.567,1.946-6.167,5.046-.418.5-1.426,1.694-2.2,2.545a36.191,36.191,0,0,1-4.8-1.952A39.8,39.8,0,0,1,31.542,39.243a36.189,36.189,0,0,1-1.952-4.8c.854-.781,2.051-1.789,2.562-2.219,3.082-2.585,4.628-3.884,5.028-6.156C38,21.369,25.547,3.957,25.419,3.8A6.649,6.649,0,0,0,20.463,1C15.414,1,1,19.7,1,22.848c0,.183.264,18.786,23.2,42.122C47.514,87.884,66.117,88.148,66.3,88.148c3.152,0,21.848-14.414,21.848-19.463A6.644,6.644,0,0,0,85.345,63.729ZM65.98,82.321c-2.539-.209-18.15-2.269-37.668-21.444C9.038,41.254,7.031,25.6,6.83,23.173A78.591,78.591,0,0,1,20.5,7.019c.116.116.27.291.468.517A102.808,102.808,0,0,1,31.351,25.149,34.529,34.529,0,0,1,28.4,27.8a29.145,29.145,0,0,0-4.392,4.131l-.706.988.209,1.194a33.169,33.169,0,0,0,2.8,7.672A45.636,45.636,0,0,0,47.369,62.831a33.084,33.084,0,0,0,7.672,2.806l1.194.209.988-.706a29.389,29.389,0,0,0,4.148-4.41c.909-1.086,2.126-2.536,2.585-2.946A102.146,102.146,0,0,1,81.612,68.179c.241.2.41.36.523.462A78.523,78.523,0,0,1,65.98,82.315Z" transform="translate(0)"/></g></svg>