<svg xmlns="http://www.w3.org/2000/svg" width="99.586" height="132.776" viewBox="0 0 99.586 132.776"><defs><style>.a{fill:#e6cbdb;}.b{fill:#a49dc6;}</style></defs><path class="a" d="M153.975,12.39H136.344a8.242,8.242,0,0,0-5.679-2.265h-3.428a14.224,14.224,0,0,0-27.241,0H96.568A8.242,8.242,0,0,0,90.89,12.39H73.259a9.445,9.445,0,0,0-9.435,9.435V37.611a1.951,1.951,0,0,0,3.9,0V21.824a5.541,5.541,0,0,1,5.535-5.534H88.567a19.591,19.591,0,0,0-.252,5.98H76.52a1.95,1.95,0,0,0-1.95,1.95v96.725a1.95,1.95,0,0,0,1.95,1.95h74.192a1.95,1.95,0,0,0,1.95-1.95V106.515a1.951,1.951,0,0,0-3.9,0V119H78.471V26.171H89.608a8.273,8.273,0,0,0,6.961,3.809h34.1a8.272,8.272,0,0,0,6.961-3.809h11.137v70.2a1.951,1.951,0,0,0,3.9,0V24.22a1.95,1.95,0,0,0-1.95-1.95H138.918a19.582,19.582,0,0,0-.252-5.98h15.309a5.541,5.541,0,0,1,5.535,5.534V123.341a5.541,5.541,0,0,1-5.535,5.534H73.259a5.541,5.541,0,0,1-5.535-5.534V48.011a1.951,1.951,0,0,0-3.9,0v75.33a9.445,9.445,0,0,0,9.435,9.435h80.716a9.445,9.445,0,0,0,9.435-9.435V21.824A9.446,9.446,0,0,0,153.975,12.39ZM130.665,26.08h-34.1a4.379,4.379,0,0,1-4.374-4.374V18.4a4.379,4.379,0,0,1,4.374-4.374h4.967a1.95,1.95,0,0,0,1.92-1.611,10.32,10.32,0,0,1,20.322,0,1.95,1.95,0,0,0,1.92,1.611h4.967a4.379,4.379,0,0,1,4.374,4.374v3.306A4.379,4.379,0,0,1,130.665,26.08Z" transform="translate(-63.824)"/><path class="b" d="M249.964,49.521c-2.51,0-2.514,3.9,0,3.9S252.478,49.521,249.964,49.521Z" transform="translate(-200.171 -36.645)"/><path class="b" d="M176.551,198.55h38.173a1.951,1.951,0,0,0,0-3.9H176.551A1.951,1.951,0,0,0,176.551,198.55Z" transform="translate(-145.844 -144.038)"/><path class="b" d="M176.551,153.55h23.694a1.951,1.951,0,0,0,0-3.9H176.551A1.951,1.951,0,0,0,176.551,153.55Z" transform="translate(-145.844 -110.739)"/><path class="b" d="M164.325,248.6v40.822a1.95,1.95,0,0,0,1.95,1.95H209.7a1.95,1.95,0,0,0,1.95-1.95V248.6a1.95,1.95,0,0,0-1.95-1.95H166.275A1.95,1.95,0,0,0,164.325,248.6Zm28.807,15.266v10.291H182.841V263.866Zm-10.291-3.9V250.55h10.291v9.415Zm24.906,14.191H197.032V263.866h10.715Zm-14.615,3.9v9.415H182.841v-9.415Zm-14.191-3.9H168.225V263.866h10.715Zm-10.715,3.9H178.94v9.415H168.225Zm28.807,9.415v-9.415h10.715v9.415Zm10.715-27.506H197.032V250.55h10.715Zm-28.807-9.415v9.415H168.225V250.55Z" transform="translate(-138.193 -182.518)"/></svg>