<svg xmlns="http://www.w3.org/2000/svg" width="100.479" height="100.479" viewBox="0 0 100.479 100.479"><defs><style>.a{fill:#a49dc6;}.b{fill:#e6cbdb;}</style></defs><g transform="translate(22.372 22.372)"><path class="a" d="M141.867,114a27.867,27.867,0,1,0,27.867,27.867A27.9,27.9,0,0,0,141.867,114Zm0,51.81a23.942,23.942,0,1,1,23.942-23.942A23.97,23.97,0,0,1,141.867,165.81Z" transform="translate(-114 -114)"/></g><g transform="translate(82.032)"><path class="b" d="M435.405.229a1.964,1.964,0,0,0-2.019.107A34.915,34.915,0,0,0,418,29.3V54.765A10.159,10.159,0,0,0,420.995,62l3.678,3.678V94.592a5.887,5.887,0,1,0,11.775,0V1.962A1.963,1.963,0,0,0,435.405.229Zm-2.883,94.363a1.962,1.962,0,1,1-3.925,0V64.86a1.963,1.963,0,0,0-.575-1.388L423.77,59.22a6.258,6.258,0,0,1-1.845-4.455V29.3a30.987,30.987,0,0,1,10.6-23.356Z" transform="translate(-418 0)"/></g><g transform="translate(32.2 33.483)"><path class="a" d="M177.613,171.809a1.963,1.963,0,0,0-2.576-1.034,18.024,18.024,0,0,0-10.962,16.6,1.962,1.962,0,1,0,3.925,0,14.1,14.1,0,0,1,8.578-12.988A1.963,1.963,0,0,0,177.613,171.809Z" transform="translate(-164.075 -170.617)"/></g><g transform="translate(48.191 32.2)"><path class="a" d="M247.61,164.075h-.1a1.963,1.963,0,0,0,.013,3.925h.086a1.962,1.962,0,0,0,0-3.925Z" transform="translate(-245.562 -164.075)"/></g><g transform="translate(32.173 12.739)"><path class="b" d="M209.209,76.6a37.526,37.526,0,0,0-44.2-7.626,1.962,1.962,0,1,0,1.781,3.5,33.6,33.6,0,0,1,39.571,6.83,1.963,1.963,0,0,0,2.847-2.7Z" transform="translate(-163.937 -64.914)"/></g><g transform="translate(29.061 70.301)"><path class="b" d="M198.37,358.647a1.963,1.963,0,0,0-2.757.322,33.588,33.588,0,0,1-44.507,7.443,1.962,1.962,0,1,0-2.125,3.3,37.513,37.513,0,0,0,49.711-8.309A1.962,1.962,0,0,0,198.37,358.647Z" transform="translate(-148.081 -358.224)"/></g><g transform="translate(23.157 73.397)"><path class="b" d="M121.524,374.77l-.029-.033-.032-.038a1.962,1.962,0,1,0-3,2.528l.019.023h0c.021.026.042.053.065.078a1.963,1.963,0,1,0,2.978-2.557Z" transform="translate(-118 -374)"/></g><g transform="translate(0 0)"><path class="b" d="M24.335,0a1.962,1.962,0,0,0-1.962,1.962V23.157H18.838c0-.011,0-.022,0-.033V1.962a1.962,1.962,0,1,0-3.925,0V23.125c0,.011,0,.022,0,.033H11.381c0-.011,0-.022,0-.033V1.962a1.962,1.962,0,1,0-3.925,0V23.125c0,.011,0,.022,0,.033H3.925V1.962A1.962,1.962,0,0,0,0,1.962V25.9A12.086,12.086,0,0,0,7.261,36.942v57.65a5.887,5.887,0,0,0,11.775,0V36.942A12.086,12.086,0,0,0,26.3,25.9V1.962A1.962,1.962,0,0,0,24.335,0ZM16.529,33.68a1.963,1.963,0,0,0-1.418,1.885V94.592a1.962,1.962,0,0,1-3.925,0V35.566A1.962,1.962,0,0,0,9.768,33.68a8.136,8.136,0,0,1-5.755-6.6h18.27A8.136,8.136,0,0,1,16.529,33.68Z"/></g></svg>