<svg xmlns="http://www.w3.org/2000/svg" width="140" height="81" viewBox="0 0 140 81"><defs><style>.a{fill:#f4d455;}</style></defs><g transform="translate(0 -96.487)"><g transform="translate(0 96.487)"><g transform="translate(0 0)"><path class="a" d="M28.615,110.532a6.894,6.894,0,0,1,9.7,0,19.083,19.083,0,0,0,26.84,0,6.886,6.886,0,0,1,9.7,0,19.083,19.083,0,0,0,26.84,0,6.886,6.886,0,0,1,9.7,0,19.061,19.061,0,0,0,26.84,0,6,6,0,0,0,0-8.52,6.087,6.087,0,0,0-8.572,0,6.886,6.886,0,0,1-9.7,0,18.914,18.914,0,0,0-13.42-5.525h0a18.915,18.915,0,0,0-13.42,5.525,6.894,6.894,0,0,1-9.7,0A18.914,18.914,0,0,0,70,96.487h0a18.915,18.915,0,0,0-13.42,5.525,6.893,6.893,0,0,1-9.7,0,19.083,19.083,0,0,0-26.84,0,6.894,6.894,0,0,1-9.7,0,6.087,6.087,0,0,0-8.572,0,6,6,0,0,0,0,8.52A19.082,19.082,0,0,0,28.615,110.532Z" transform="translate(0 -96.487)"/><path class="a" d="M28.615,212.532a6.894,6.894,0,0,1,9.7,0,19.083,19.083,0,0,0,26.84,0,6.886,6.886,0,0,1,9.7,0,19.083,19.083,0,0,0,26.84,0,6.886,6.886,0,0,1,9.7,0,19.061,19.061,0,0,0,26.84,0,6,6,0,0,0,0-8.52,6.088,6.088,0,0,0-8.573,0,6.886,6.886,0,0,1-9.7,0,18.914,18.914,0,0,0-13.42-5.525h0a18.915,18.915,0,0,0-13.42,5.525,6.894,6.894,0,0,1-9.7,0A18.914,18.914,0,0,0,70,198.487h0a18.915,18.915,0,0,0-13.42,5.525,6.893,6.893,0,0,1-9.7,0,19.083,19.083,0,0,0-26.84,0,6.894,6.894,0,0,1-9.7,0,6.087,6.087,0,0,0-8.572,0,6,6,0,0,0,0,8.52A19.083,19.083,0,0,0,28.615,212.532Z" transform="translate(0 -167.772)"/><path class="a" d="M129.651,306.012a6.886,6.886,0,0,1-9.7,0,18.914,18.914,0,0,0-13.42-5.525h0a18.915,18.915,0,0,0-13.42,5.525,6.894,6.894,0,0,1-9.7,0A18.914,18.914,0,0,0,70,300.487h0a18.915,18.915,0,0,0-13.42,5.525,6.893,6.893,0,0,1-9.7,0,19.083,19.083,0,0,0-26.84,0,6.894,6.894,0,0,1-9.7,0,6.087,6.087,0,0,0-8.572,0,6,6,0,0,0,0,8.52,19.083,19.083,0,0,0,26.84,0,6.894,6.894,0,0,1,9.7,0,19.083,19.083,0,0,0,26.84,0,6.886,6.886,0,0,1,9.7,0,19.083,19.083,0,0,0,26.84,0,6.886,6.886,0,0,1,9.7,0,19.061,19.061,0,0,0,26.84,0,6,6,0,0,0,0-8.52A6.088,6.088,0,0,0,129.651,306.012Z" transform="translate(0 -239.057)"/></g></g></g></svg>