<svg xmlns="http://www.w3.org/2000/svg" width="91.459" height="52.916" viewBox="0 0 91.459 52.916"><defs><style>.a{fill:#e6cbdb;}</style></defs><g transform="translate(0 -96.487)"><g transform="translate(0 96.487)"><g transform="translate(0 0)"><path class="a" d="M18.693,105.662a4.5,4.5,0,0,1,6.334,0,12.466,12.466,0,0,0,17.534,0,4.5,4.5,0,0,1,6.334,0,12.466,12.466,0,0,0,17.534,0,4.5,4.5,0,0,1,6.334,0,12.452,12.452,0,0,0,17.534,0,3.919,3.919,0,0,0,0-5.566,3.977,3.977,0,0,0-5.6,0,4.5,4.5,0,0,1-6.334,0,12.356,12.356,0,0,0-8.767-3.61h0A12.357,12.357,0,0,0,60.83,100.1a4.5,4.5,0,0,1-6.334,0,12.356,12.356,0,0,0-8.767-3.61h0a12.357,12.357,0,0,0-8.767,3.609,4.5,4.5,0,0,1-6.334,0,12.466,12.466,0,0,0-17.534,0,4.5,4.5,0,0,1-6.334,0,3.977,3.977,0,0,0-5.6,0,3.919,3.919,0,0,0,0,5.566A12.466,12.466,0,0,0,18.693,105.662Z" transform="translate(0 -96.487)"/><path class="a" d="M18.694,207.662a4.5,4.5,0,0,1,6.334,0,12.466,12.466,0,0,0,17.534,0,4.5,4.5,0,0,1,6.334,0,12.466,12.466,0,0,0,17.534,0,4.5,4.5,0,0,1,6.334,0,12.452,12.452,0,0,0,17.534,0,3.919,3.919,0,0,0,0-5.566,3.977,3.977,0,0,0-5.6,0,4.5,4.5,0,0,1-6.334,0,12.356,12.356,0,0,0-8.767-3.61h0A12.357,12.357,0,0,0,60.83,202.1a4.5,4.5,0,0,1-6.334,0,12.356,12.356,0,0,0-8.767-3.61h0a12.357,12.357,0,0,0-8.767,3.609,4.5,4.5,0,0,1-6.334,0,12.466,12.466,0,0,0-17.534,0,4.5,4.5,0,0,1-6.334,0,3.977,3.977,0,0,0-5.6,0,3.919,3.919,0,0,0,0,5.566A12.467,12.467,0,0,0,18.694,207.662Z" transform="translate(0 -178.422)"/><path class="a" d="M84.7,304.1a4.5,4.5,0,0,1-6.334,0,12.356,12.356,0,0,0-8.767-3.61h0A12.357,12.357,0,0,0,60.83,304.1a4.5,4.5,0,0,1-6.334,0,12.356,12.356,0,0,0-8.767-3.61h0a12.357,12.357,0,0,0-8.767,3.609,4.5,4.5,0,0,1-6.334,0,12.466,12.466,0,0,0-17.534,0,4.5,4.5,0,0,1-6.334,0,3.977,3.977,0,0,0-5.6,0,3.919,3.919,0,0,0,0,5.566,12.467,12.467,0,0,0,17.534,0,4.5,4.5,0,0,1,6.334,0,12.466,12.466,0,0,0,17.534,0,4.5,4.5,0,0,1,6.334,0,12.466,12.466,0,0,0,17.534,0,4.5,4.5,0,0,1,6.334,0,12.452,12.452,0,0,0,17.534,0,3.919,3.919,0,0,0,0-5.566A3.977,3.977,0,0,0,84.7,304.1Z" transform="translate(0 -260.356)"/></g></g></g></svg>